<?xml version="1.0" encoding="utf-8"?>
<!-- Generator: Adobe Illustrator 15.0.0, SVG Export Plug-In . SVG Version: 6.00 Build 0)  -->
<!DOCTYPE svg PUBLIC "-//W3C//DTD SVG 1.1//EN" "http://www.w3.org/Graphics/SVG/1.1/DTD/svg11.dtd">
<svg version="1.1" id="Layer_1" xmlns="http://www.w3.org/2000/svg" xmlns:xlink="http://www.w3.org/1999/xlink" x="0px" y="0px"
	 width="214.135px" height="349.317px" viewBox="0 0 214.135 349.317" enable-background="new 0 0 214.135 349.317"
	 xml:space="preserve">
<g>
	<linearGradient id="SVGID_1_" gradientUnits="userSpaceOnUse" x1="107.8394" y1="351.0078" x2="105.6396" y2="-4.3206">
		<stop  offset="0" style="stop-color:#E42326"/>
		<stop  offset="1" style="stop-color:#FBAD18"/>
	</linearGradient>
	<path fill="url(#SVGID_1_)" d="M110.834,349.317c-29.057,0-83.604-28.929-105.064-82.872c-4.251-10.688-5.291-17.609-5.77-30.42
		c7.147,23.616,16.105,28.061,19.932,29.896c-8.655-13.374-12.635-28.27-12.635-39.809c0-13.113,3.41-27.355,11.54-40.179
		c-7.344,23.808,3.147,37.767,8.437,42.223c-6.294-16.782,6.715-33.645,18.252-44.135c14.163-12.065,22.984-25.885,20.779-41.096
		c-1.115-7.702-2.553-16.407-11.276-23.98c19.759,5.75,22.397,22.581,27.317,36.83c-3.146-9.44-3.606-25.24,1.007-36.977
		C89.12,104.114,124.787,60.581,85.493,0c39.294,18.62,70.657,81.822,68.666,94.673c1.991-10.49,0.825-20.979-3.148-30.945
		c31.091,37.239,34.094,87.453,30.423,107.384c-1.049,6.818-3.799,19.826-12.588,39.198c8.258-11.262,23.601-35.65,23.077-62.138
		c34.942,58.746,21.024,94.15,9.486,114.079c-5.245,9.443-10.828,17.308-19.7,25.178c4.198,1.571,20.728-10.625,26.957-22.816
		c-4.733,42.394-51.559,79.306-92.751,84.706H110.834z"/>
</g>
<g>
	<linearGradient id="SVGID_2_" gradientUnits="userSpaceOnUse" x1="108.0693" y1="109.6265" x2="115.7701" y2="347.2445">
		<stop  offset="0.0121" style="stop-color:#FED900"/>
		<stop  offset="0.1186" style="stop-color:#FDD402"/>
		<stop  offset="0.2765" style="stop-color:#FBC60F"/>
		<stop  offset="0.4664" style="stop-color:#F8AE1A"/>
		<stop  offset="0.6812" style="stop-color:#F58E1F"/>
		<stop  offset="0.914" style="stop-color:#F16422"/>
		<stop  offset="1" style="stop-color:#F04F23"/>
	</linearGradient>
	<path fill="url(#SVGID_2_)" d="M114.82,348.86c-29.245-13.132-55.018-43.589-52.031-80.185
		c3.094-37.93,31.578-70.74,48.581-101.824c7.235-13.225,13.758-40.389,2.408-57.094c28.667,28.519,17.595,65.094,10.661,102.496
		c-1.994,10.765,0.688,22.7,7.567,28.718c-1.201-9.597,0.23-22.84,11.351-29.406c-3.726,10.719-2.746,18.145,2.408,29.579
		c4.63,10.276,11.578,19.278,15.778,30.077c7.798,21.596,1.073,42.495-16.809,59.35c-7.411,6.98-18.574,15.229-28.592,18.29H114.82z
		"/>
</g>
</svg>
